# xmcd
#
# Track frame offsets:
#	150
#	11783
#	22910
#	36109
#	52603
#	69959
#	88250
#	103227
#	120921
#	138180
#	156981
#	170263
#	187864
#	204178
#	217724
#	232210
#	245936
#	262874
#	274826
#	292065
#
# Disc length: 4101 seconds
#
# Revision: 1
# Processed by: cddbd v1.5.2PL0 Copyright (c) Steve Scherf et al.
# Submitted via: audiograbber 1.83.01
#
DISCID=10100314
DTITLE=Cuba Fiesta Tropical - Cuba Fiesta Tropical CD3
DYEAR=2008
DGENRE=Cuba
TTITLE0=Siempre En Mi Corazon
TTITLE1=Piensa En Mi
TTITLE2=Dos Gardenias
TTITLE3=Caminemos/Usted/Una Aventura Mas
TTITLE4=Contigo Aprendi/Adoro/Esta Tarde Vi Llover
TTITLE5=Ni Chicha Ni Limona
TTITLE6=La Gloria Eres Tu
TTITLE7=Total/Plazos Traicioneros
TTITLE8=Es Mi ViejoSan Juan/Pien Canela
TTITLE9=Eclipse De Luna
TTITLE10=Cada Vez Que Me Acuerdo De Ti
TTITLE11=No Pienses Asi
TTITLE12=Mas Que Un Sueno
TTITLE13=Como Arrullo De Palmas
TTITLE14=Alli
TTITLE15=Te Quedaras
TTITLE16=Corazon Loco
TTITLE17=Indifferente
TTITLE18=Como Fue
TTITLE19=No Esperes Eso De Mi
EXTD=Cuba Fiesta TropicaI\nIzdaje - Reader's Digest
EXTT0=
EXTT1=
EXTT2=
EXTT3=
EXTT4=
EXTT5=
EXTT6=
EXTT7=
EXTT8=
EXTT9=
EXTT10=
EXTT11=
EXTT12=
EXTT13=
EXTT14=
EXTT15=
EXTT16=
EXTT17=
EXTT18=
EXTT19=
PLAYORDER=
